<svg width="513" height="622" viewBox="0 0 513 622" fill="none" xmlns="http://www.w3.org/2000/svg">
<path d="M233.893 314.773H12.5867C5.98772 314.773 0.638779 309.424 0.638779 302.825V171.227C0.649196 160.701 4.83664 150.612 12.2794 143.169C19.7221 135.727 29.8101 131.539 40.3368 131.523H206.137C216.668 131.534 226.757 135.721 234.205 143.164C241.647 150.607 245.835 160.7 245.845 171.227V302.825C245.845 305.992 244.59 309.034 242.345 311.273C240.106 313.513 237.069 314.773 233.903 314.773L233.893 314.773ZM24.5333 290.877H221.947V171.227C221.931 162.497 214.858 155.429 206.129 155.42H40.3693C31.6453 155.43 24.5773 162.503 24.5667 171.227L24.5333 290.877Z" fill="#EBF8FD"/>
<path d="M210.76 621.947H35.7067C29.1077 621.947 23.7588 616.598 23.7588 609.999V360.546V359.535C26.2848 329.816 5.9148 312.832 5.04547 312.123L5.10276 312.175L19.9668 293.457C21.2428 294.472 50.9614 318.577 47.5921 361.03V598.043H198.805V361.03C195.467 318.577 225.185 294.473 226.431 293.457L241.291 312.175L241.348 312.123C240.483 312.831 220.113 329.82 222.629 359.535C222.661 359.868 222.676 360.207 222.676 360.546L222.681 609.999C222.681 616.587 217.343 621.931 210.754 621.947H210.76Z" fill="#EBF8FD"/>
<path d="M123.24 512.187C108.453 512.181 94.276 506.301 83.824 495.843C73.3761 485.39 67.5066 471.207 67.5066 456.427C67.5119 441.64 73.3816 427.463 83.84 417.011C94.293 406.558 108.471 400.683 123.252 400.677C138.039 400.677 152.216 406.547 162.673 417C173.132 427.448 179.007 441.625 179.017 456.412C179.007 471.199 173.127 485.381 162.668 495.839C152.209 506.296 138.028 512.177 123.241 512.188L123.24 512.187ZM123.24 424.583V424.577C114.787 424.588 106.688 427.947 100.713 433.926C94.7445 439.906 91.3904 448.014 91.4008 456.462C91.406 464.915 94.7705 473.014 100.75 478.989C106.729 484.958 114.838 488.307 123.286 488.302C131.739 488.291 139.838 484.927 145.807 478.947C151.776 472.968 155.13 464.859 155.12 456.411C155.109 447.958 151.745 439.859 145.771 433.885C139.791 427.916 131.688 424.557 123.24 424.557V424.583Z" fill="#EBF8FD"/>
<path d="M90.5467 372.706H67.02C60.421 372.706 55.0721 367.358 55.0721 360.759C55.0721 354.165 60.421 348.816 67.02 348.816H90.556H90.5508C97.1497 348.816 102.499 354.165 102.499 360.759C102.499 367.358 97.1497 372.706 90.5508 372.706H90.5467Z" fill="#EBF8FD"/>
<path d="M179.467 372.706H155.931C149.332 372.706 143.988 367.358 143.988 360.759C143.988 354.165 149.332 348.816 155.931 348.816H179.467C186.066 348.816 191.415 354.165 191.415 360.759C191.415 367.358 186.066 372.706 179.467 372.706Z" fill="#EBF8FD"/>
<path d="M90.5467 564.013H67.02C60.421 564.013 55.0721 558.669 55.0721 552.07C55.0721 545.472 60.421 540.123 67.02 540.123H90.556H90.5508C97.1497 540.123 102.499 545.472 102.499 552.07C102.499 558.669 97.1497 564.013 90.5508 564.013H90.5467Z" fill="#EBF8FD"/>
<path d="M179.467 564.013H155.931C149.332 564.013 143.988 558.669 143.988 552.07C143.988 545.472 149.332 540.123 155.931 540.123H179.467C186.066 540.123 191.415 545.472 191.415 552.07C191.415 558.669 186.066 564.013 179.467 564.013Z" fill="#EBF8FD"/>
<path d="M123.24 512.187C116.641 512.187 111.292 506.838 111.292 500.239V446.687C111.292 440.088 116.641 434.744 123.24 434.744C129.834 434.744 135.183 440.088 135.183 446.687V500.239C135.183 503.405 133.927 506.447 131.688 508.687C129.443 510.926 126.407 512.187 123.24 512.187Z" fill="#EBF8FD"/>
<path d="M192.333 198.28H54.1467C47.5477 198.28 42.1988 192.931 42.1988 186.332C42.1988 179.733 47.5477 174.384 54.1467 174.384H192.333C198.932 174.384 204.281 179.733 204.281 186.332C204.281 192.931 198.932 198.28 192.333 198.28Z" fill="#EBF8FD"/>
<path d="M192.333 235.094H54.1467C47.5477 235.094 42.1988 229.745 42.1988 223.146C42.1988 216.547 47.5477 211.198 54.1467 211.198H192.333C198.932 211.198 204.281 216.547 204.281 223.146C204.281 229.745 198.932 235.094 192.333 235.094Z" fill="#EBF8FD"/>
<path d="M192.333 271.906H54.1467C47.5477 271.906 42.1988 266.558 42.1988 259.959C42.1988 253.36 47.5477 248.011 54.1467 248.011H192.333C198.932 248.011 204.281 253.36 204.281 259.959C204.281 266.558 198.932 271.906 192.333 271.906Z" fill="#EBF8FD"/>
<path d="M290.627 303.6C284.028 303.6 278.679 298.251 278.679 291.652V96.3587C278.679 70.7281 265.007 47.0414 242.809 34.2227C220.607 21.4102 193.257 21.4102 171.06 34.2227C148.863 47.0405 135.185 70.7281 135.185 96.3587V143.473C135.185 150.072 129.837 155.421 123.243 155.421C116.644 155.421 111.295 150.072 111.295 143.473V96.3587C111.295 62.1921 129.524 30.6188 159.112 13.5308C188.706 -3.55192 225.164 -3.55192 254.752 13.5308C284.346 30.6188 302.575 62.1921 302.575 96.3587V291.652C302.575 294.824 301.315 297.86 299.075 300.1C296.835 302.345 293.793 303.6 290.627 303.6Z" fill="#EBF8FD"/>
<path d="M374.307 434.413C348.943 434.413 324.613 424.341 306.681 406.403C288.744 388.466 278.671 364.143 278.671 338.772V291.658C278.671 285.064 284.02 279.715 290.619 279.715C297.217 279.715 302.566 285.064 302.566 291.658V338.772C302.368 357.928 309.842 376.365 323.316 389.98C336.794 403.595 355.154 411.251 374.31 411.251C393.461 411.251 411.821 403.595 425.3 389.98C438.773 376.365 446.248 357.928 446.049 338.772V293.793C446.049 287.2 451.398 281.851 457.997 281.851C464.596 281.851 469.945 287.2 469.945 293.793V338.772C469.914 364.132 459.83 388.444 441.903 406.371C423.971 424.303 399.658 434.387 374.305 434.412L374.307 434.413Z" fill="#EBF8FD"/>
<path d="M486.507 305.733H429.507C423.491 305.728 418.418 301.249 417.663 295.28L403.412 184.395C402.98 180.994 404.032 177.572 406.303 174.999C408.569 172.426 411.829 170.957 415.261 170.952H500.751C504.183 170.957 507.443 172.426 509.709 174.999C511.98 177.572 513.032 180.994 512.605 184.395L498.354 295.312C497.589 301.271 492.516 305.734 486.505 305.734L486.507 305.733ZM440.017 281.837H475.991L487.189 194.785H428.839L440.017 281.837Z" fill="#EBF8FD"/>
</svg>
